<svg xmlns="http://www.w3.org/2000/svg" viewBox="0 0 64 64">
  <defs>
    <linearGradient id="g" x1="0" y1="0" x2="1" y2="1">
      <stop offset="0%" stop-color="#4f46e5"/>
      <stop offset="100%" stop-color="#06b6d4"/>
    </linearGradient>
  </defs>
  <rect x="4" y="4" width="56" height="56" rx="12" fill="url(#g)"/>
  <g fill="#fff">
    <path d="M18 22h28a2 2 0 0 1 0 4H18a2 2 0 0 1 0-4z"/>
    <path d="M18 30h22a2 2 0 0 1 0 4H18a2 2 0 0 1 0-4z"/>
    <circle cx="46" cy="32" r="4"/>
    <path d="M18 38h14a2 2 0 0 1 0 4H18a2 2 0 0 1 0-4z"/>
  </g>
</svg>

